<?xml version="1.0" standalone="no"?>
<!DOCTYPE svg PUBLIC "-//W3C//DTD SVG 20010904//EN"
 "http://www.w3.org/TR/2001/REC-SVG-20010904/DTD/svg10.dtd">
<svg version="1.0" xmlns="http://www.w3.org/2000/svg"
 width="1000.000000pt" height="900.000000pt" viewBox="0 0 1000.000000 900.000000"
 preserveAspectRatio="xMidYMid meet">

<g transform="translate(0.000000,900.000000) scale(0.100000,-0.100000)"
fill="#000000" stroke="none">
<path d="M0 4500 l0 -4500 5000 0 5000 0 0 4500 0 4500 -5000 0 -5000 0 0
-4500z m4706 3443 c-7 -7 -26 7 -26 19 0 6 6 6 15 -2 9 -7 13 -15 11 -17z m9
-22 c3 -5 1 -12 -5 -16 -5 -3 -10 1 -10 9 0 18 6 21 15 7z m35 -45 c0 -9 -30
-14 -35 -6 -4 6 3 10 14 10 12 0 21 -2 21 -4z m-300 -106 c0 -5 -10 -10 -22
-10 -19 0 -20 2 -8 10 19 13 30 13 30 0z m-130 -120 c0 -13 -28 -25 -38 -16
-3 4 0 11 8 16 20 13 30 12 30 0z m465 -80 c-3 -5 -1 -10 6 -10 7 0 10 -3 6
-6 -9 -9 -28 6 -22 17 4 5 8 9 11 9 3 0 2 -4 -1 -10z m-725 -188 c0 -13 -12
-22 -22 -16 -10 6 -1 24 13 24 5 0 9 -4 9 -8z m400 -172 c0 -5 -12 -10 -27 -9
l-28 1 25 8 c14 4 26 8 28 9 1 1 2 -3 2 -9z m-680 -98 c-27 -4 -34 2 -26 24 6
15 8 15 27 -2 l21 -19 -22 -3z m1810 -62 c0 -5 -7 -10 -16 -10 -8 0 -12 5 -9
10 3 6 10 10 16 10 5 0 9 -4 9 -10z m-1335 -20 c-3 -5 -11 -10 -16 -10 -6 0
-7 5 -4 10 3 6 11 10 16 10 6 0 7 -4 4 -10z m-645 -80 c0 -5 -4 -10 -9 -10 -6
0 -13 5 -16 10 -3 6 1 10 9 10 9 0 16 -4 16 -10z m590 0 c0 -5 -7 -7 -15 -4
-8 4 -15 8 -15 10 0 2 7 4 15 4 8 0 15 -4 15 -10z m-25 -50 c-3 -5 -11 -10
-16 -10 -6 0 -7 5 -4 10 3 6 11 10 16 10 6 0 7 -4 4 -10z m-51 -41 c-5 -9 -44
11 -44 23 0 4 11 3 25 -4 13 -6 22 -15 19 -19z m-574 2 c0 -5 -11 -16 -25 -25
-27 -18 -30 -15 -15 15 11 19 40 27 40 10z m526 -16 c-3 -9 0 -15 9 -15 20 0
19 -19 -1 -27 -8 -3 -23 1 -31 10 -13 13 -13 17 -2 31 18 20 33 20 25 1z
m-614 -44 c14 -17 15 -21 2 -32 -11 -9 -18 -8 -33 5 -19 17 -31 11 -44 -25 -4
-13 0 -15 21 -11 l27 4 -30 -26 c-17 -14 -37 -23 -47 -20 -13 4 -16 1 -12 -9
3 -8 -2 -17 -11 -21 -9 -3 -14 -10 -11 -14 9 -15 -35 -54 -55 -49 -22 6 -37
-12 -19 -23 19 -12 -265 -291 -288 -284 -13 5 -14 4 -3 -4 10 -7 -37 -60 -207
-231 -121 -121 -224 -221 -229 -221 -4 0 -14 9 -21 20 -12 19 22 55 460 490
259 259 474 470 478 470 3 0 13 -9 22 -19z m565 -5 c-4 -10 0 -12 15 -8 18 4
19 3 9 -17 -7 -11 -20 -21 -30 -21 -11 0 -21 -7 -25 -15 -9 -24 -24 -17 -22
10 0 14 7 25 14 25 6 0 12 6 12 14 0 12 11 21 29 25 2 1 1 -5 -2 -13z m-120
-162 c-15 -13 -27 -27 -27 -32 0 -15 -48 -43 -55 -32 -3 6 -11 10 -17 10 -7 0
-6 -6 2 -15 9 -11 9 -15 1 -15 -7 0 -9 -5 -5 -12 4 -7 3 -8 -5 -4 -6 4 -9 11
-6 16 3 5 -2 10 -10 12 -11 2 -5 14 24 46 30 32 46 42 70 42 28 0 30 2 22 19
-15 27 0 35 17 9 14 -20 13 -23 -11 -44z m-140 -107 c-1 -7 5 -11 13 -9 9 2 5
-6 -10 -22 -25 -24 -38 -29 -74 -27 -18 1 -18 2 -2 20 10 11 24 17 31 15 7 -3
16 -1 20 5 3 6 2 11 -4 11 -6 0 -8 6 -5 14 7 17 34 10 31 -7z m2973 -71 c0 -3
-4 -8 -10 -11 -5 -3 -10 -1 -10 4 0 6 5 11 10 11 6 0 10 -2 10 -4z m40 -16 c0
-5 -4 -10 -10 -10 -5 0 -10 5 -10 10 0 6 5 10 10 10 6 0 10 -4 10 -10z m-3119
-53 c-29 -27 -59 -60 -68 -73 -8 -13 -22 -24 -29 -24 -8 0 -14 -4 -14 -10 0
-8 -416 -427 -1523 -1538 l-252 -252 306 -308 c296 -296 306 -308 297 -334 -5
-16 -13 -28 -16 -28 -4 0 -158 151 -342 335 l-335 335 895 895 c492 492 910
905 927 918 18 12 33 25 33 29 0 4 23 28 51 55 40 38 57 48 86 49 l36 1 -52
-50z m3159 4 c0 -6 -4 -13 -10 -16 -5 -3 -10 1 -10 9 0 9 5 16 10 16 6 0 10
-4 10 -9z m190 -202 c0 -18 -18 -9 -23 12 -4 16 -3 18 9 8 8 -6 14 -15 14 -20z
m-560 10 c0 -5 -4 -7 -10 -4 -5 3 -10 1 -10 -4 0 -6 -8 -11 -17 -11 -16 1 -16
2 1 15 23 18 36 19 36 4z m170 -171 c0 -10 -44 0 -48 11 -2 6 -9 8 -16 5 -7
-3 -19 2 -26 11 -10 12 -10 15 4 15 19 0 20 4 5 33 -7 13 8 3 35 -23 25 -24
46 -47 46 -52z m550 42 c0 -5 -4 -10 -9 -10 -6 0 -13 5 -16 10 -3 6 1 10 9 10
9 0 16 -4 16 -10z m5 -60 c3 -5 1 -10 -4 -10 -6 0 -11 5 -11 10 0 6 2 10 4 10
3 0 8 -4 11 -10z m-520 -10 c3 -5 3 -10 -2 -11 -4 0 -17 -2 -27 -4 -31 -6 -44
8 -16 16 36 10 38 10 45 -1z m39 -36 c6 -15 -13 -18 -51 -8 -33 9 -28 19 11
21 22 1 36 -4 40 -13z m662 -96 c19 -23 19 -23 -1 -7 -11 9 -27 19 -35 22 -13
5 -13 6 1 6 9 1 24 -9 35 -21z m-4881 -35 c-5 -23 -4 -25 10 -13 24 20 31 2 7
-20 -12 -11 -32 -20 -46 -20 -13 0 -26 -7 -30 -15 -3 -8 -1 -15 3 -15 5 0 11
6 14 13 2 6 7 9 11 6 7 -7 -61 -89 -74 -89 -5 0 -7 8 -4 18 4 12 3 13 -3 4 -8
-10 -12 -10 -22 2 -10 12 -1 27 58 85 38 39 73 71 76 71 4 0 4 -12 0 -27z
m4305 9 c20 -16 20 -19 7 -31 -13 -10 -18 -8 -32 18 -17 35 -8 40 25 13z m694
-67 c18 -28 21 -45 6 -45 -5 0 -10 7 -10 15 0 8 -4 15 -10 15 -5 0 -10 -7 -10
-16 0 -13 -3 -14 -14 -4 -12 9 -13 17 -4 36 14 30 22 30 42 -1z m-632 0 c0 -5
-5 -11 -11 -13 -6 -2 -11 4 -11 13 0 9 5 15 11 13 6 -2 11 -8 11 -13z m68 -51
c-15 -17 -30 -9 -30 17 0 17 3 18 21 9 16 -9 18 -14 9 -26z m610 2 c0 -3 -4
-8 -10 -11 -5 -3 -10 -1 -10 4 0 6 5 11 10 11 6 0 10 -2 10 -4z m-590 -32 c0
-9 5 -12 13 -8 9 5 9 4 1 -5 -9 -10 -17 -10 -33 -1 -23 12 -20 30 5 30 8 0 14
-7 14 -16z m-4584 -8 c18 -14 18 -16 2 -33 -11 -10 -18 -13 -18 -5 0 7 -9 12
-20 12 -12 0 -20 -7 -20 -16 0 -10 5 -14 16 -10 10 4 13 2 8 -7 -5 -6 -258
-263 -563 -570 -306 -307 -557 -561 -559 -565 -1 -4 227 -236 507 -516 478
-477 508 -511 498 -533 -5 -12 -15 -23 -21 -23 -6 0 -252 241 -546 535 l-535
535 555 555 c305 305 561 555 568 555 7 0 11 4 8 9 -6 9 79 91 93 91 4 0 16
-6 27 -14z m5158 -2 c4 -10 1 -14 -6 -12 -15 5 -23 28 -10 28 5 0 13 -7 16
-16z m-501 -48 c-3 -5 -2 -6 4 -3 12 8 53 -20 53 -36 0 -22 -58 -18 -85 7 -28
26 -31 36 -11 36 8 0 17 8 20 17 6 15 9 15 16 3 5 -8 6 -18 3 -24z m547 20 c0
-3 -4 -8 -10 -11 -5 -3 -10 -1 -10 4 0 6 5 11 10 11 6 0 10 -2 10 -4z m35 -26
c0 -13 -6 -25 -12 -27 -9 -3 -13 6 -13 27 0 21 4 30 13 28 6 -3 12 -15 12 -28z
m45 -22 c0 -7 -5 -20 -10 -28 -7 -12 -12 -12 -22 -2 -9 9 -9 12 5 12 9 0 17 7
17 15 0 8 2 15 5 15 3 0 5 -6 5 -12z m40 -38 c0 -6 -7 -13 -15 -16 -12 -5 -12
-9 2 -32 l16 -27 -28 27 c-24 22 -26 28 -14 42 16 17 39 21 39 6z m65 -70 c-3
-5 -10 -10 -16 -10 -5 0 -9 5 -9 10 0 6 7 10 16 10 8 0 12 -4 9 -10z m-535
-40 c0 -10 -35 -8 -46 2 -3 4 -3 11 1 17 7 13 45 -4 45 -19z m520 10 c0 -5 -4
-10 -10 -10 -5 0 -10 5 -10 10 0 6 5 10 10 10 6 0 10 -4 10 -10z m50 -5 c-7
-9 -15 -13 -17 -11 -7 7 7 26 19 26 6 0 6 -6 -2 -15z m-540 -42 c0 -13 -3 -13
-15 -3 -8 7 -12 16 -9 21 8 13 24 1 24 -18z m570 1 c0 -8 -9 -14 -20 -14 -22
0 -28 26 -7 33 16 6 27 -1 27 -19z m-579 -37 c-1 -12 -15 -9 -19 4 -3 6 1 10
8 8 6 -3 11 -8 11 -12z m712 -84 c-16 -6 -17 -39 -1 -49 7 -5 9 -2 5 8 -9 24
4 30 25 11 10 -9 18 -13 18 -8 0 4 7 2 15 -5 20 -16 19 -30 -1 -30 -11 0 -15
-6 -11 -20 3 -11 4 -20 2 -20 -12 0 -86 80 -85 91 1 8 2 25 1 38 -1 19 -5 22
-25 17 -19 -5 -25 -1 -28 19 -3 13 0 26 6 28 16 6 94 -74 79 -80z m-671 42 c0
-5 -5 -11 -11 -13 -6 -2 -11 4 -11 13 0 9 5 15 11 13 6 -2 11 -8 11 -13z m48
5 c12 -8 13 -11 1 -19 -16 -10 3 -26 19 -16 6 3 10 2 10 -4 0 -15 -18 -23 -25
-10 -4 5 -13 8 -21 5 -7 -3 -16 0 -20 6 -4 7 -3 8 5 4 8 -6 10 0 5 18 -7 27 1
32 26 16z m77 -76 c3 -9 0 -20 -8 -24 -7 -5 -10 -12 -6 -16 3 -4 13 -1 21 5
13 11 22 6 53 -24 21 -20 38 -47 38 -59 0 -16 5 -20 21 -18 12 2 24 -4 27 -13
4 -8 2 -15 -3 -15 -5 0 -7 -7 -4 -15 4 -9 14 -13 23 -11 9 3 25 -1 35 -9 20
-15 20 -15 0 -30 -16 -12 -17 -14 -2 -15 9 0 18 6 21 13 5 16 37 -9 37 -29 0
-8 4 -14 10 -14 16 0 86 -73 94 -98 4 -12 10 -21 14 -18 4 2 18 -7 32 -20 17
-17 20 -24 10 -24 -8 -1 0 -7 18 -15 37 -16 41 -30 12 -45 -15 -8 -18 -7 -15
2 3 7 -4 19 -16 26 -15 10 -19 10 -14 1 5 -8 4 -10 -3 -5 -7 4 -12 14 -12 23
0 10 -6 13 -16 9 -10 -4 -18 0 -21 13 -3 11 -12 22 -20 25 -9 4 -12 14 -9 28
3 13 3 17 0 11 -3 -7 -10 -13 -14 -13 -17 0 -62 49 -55 60 3 5 -5 14 -18 19
-32 12 -194 173 -199 197 -2 11 -8 19 -13 19 -23 0 -53 43 -48 69 6 29 20 34
30 10z m653 -79 c5 -14 16 -25 24 -25 8 0 35 -21 60 -46 37 -37 44 -49 36 -64
-6 -10 -10 -21 -10 -24 0 -11 38 -6 42 6 4 11 68 -44 68 -59 0 -5 10 -13 22
-18 26 -12 36 -35 15 -35 -30 0 -110 52 -157 102 -50 53 -59 68 -40 68 6 0 10
-3 10 -8 0 -4 9 -13 20 -20 27 -17 25 -3 -4 31 -21 25 -27 27 -47 17 -30 -17
-64 17 -64 65 0 41 11 46 25 10z m248 -286 c-2 -6 -8 -10 -13 -10 -5 0 -11 4
-13 10 -2 6 4 11 13 11 9 0 15 -5 13 -11z m60 -11 c13 -13 -2 -38 -23 -38 -21
0 -36 25 -23 38 7 7 17 12 23 12 6 0 16 -5 23 -12z m-5127 -13 c144 -51 133
-133 -66 -498 -23 -42 -107 -247 -102 -247 2 0 29 25 61 55 70 65 165 123 273
167 140 57 333 50 447 -17 89 -52 177 -169 220 -292 l13 -38 39 64 c56 92 107
145 189 196 97 61 174 91 270 105 220 34 413 -81 565 -336 65 -109 145 -212
208 -269 92 -81 316 -204 422 -231 121 -31 341 10 509 94 76 38 187 111 248
164 354 306 450 414 596 671 150 263 325 325 420 150 l27 -52 -38 -83 c-74
-159 -173 -304 -364 -535 -249 -299 -637 -591 -908 -683 -110 -37 -198 -50
-346 -50 -288 0 -458 62 -714 259 -147 113 -226 196 -322 337 -49 73 -115 160
-146 193 -52 55 -61 61 -97 61 -123 -1 -234 -135 -350 -420 -95 -236 -198
-425 -243 -449 -27 -15 -90 -24 -116 -17 -14 3 -39 18 -56 32 -66 56 -103 172
-124 396 -25 261 -75 437 -127 453 -13 4 -27 12 -30 17 -19 29 -141 -38 -248
-137 -138 -128 -414 -472 -614 -766 -44 -64 -124 -138 -186 -170 -99 -51 -231
32 -231 146 0 61 272 757 412 1055 27 58 56 128 65 155 9 28 28 68 42 90 13
22 53 96 87 165 75 151 129 221 198 255 59 29 61 30 117 10z m5168 -28 c6 -8
8 -17 4 -21 -4 -4 0 -4 9 -1 9 4 19 1 23 -5 9 -14 6 -17 -25 -24 -36 -9 -53 5
-44 37 7 30 16 34 33 14z m100 -90 c12 -14 20 -30 16 -36 -3 -6 0 -11 8 -11 8
0 25 -9 38 -20 19 -15 21 -22 11 -28 -7 -5 -12 -13 -10 -18 7 -21 -19 -9 -50
22 -18 18 -27 32 -20 31 7 -2 3 1 -9 7 -13 5 -23 16 -23 23 0 7 -6 10 -15 7
-8 -4 -15 -1 -15 5 0 6 6 11 13 12 6 0 2 4 -10 9 -27 11 -30 27 -5 33 22 5 41
-5 71 -36z m-603 -6 c-12 -19 -24 -12 -19 10 4 13 9 17 15 11 6 -6 7 -15 4
-21z m21 -51 c-6 -11 -15 -20 -19 -20 -12 0 -9 25 4 38 17 17 29 4 15 -18z
m77 -52 c3 -13 2 -26 -2 -30 -12 -11 -45 20 -39 37 9 22 34 18 41 -7z m629
-42 c-2 -22 1 -25 11 -17 10 9 27 -2 73 -48 l60 -59 -150 -151 c-82 -83 -156
-151 -163 -151 -8 0 -14 -6 -14 -13 0 -16 -385 -399 -393 -391 -4 4 -10 -2
-13 -12 -4 -10 -149 -162 -323 -336 -286 -288 -319 -318 -348 -318 -18 0 -33
3 -33 8 0 10 574 582 584 582 5 0 2 -8 -5 -17 -13 -16 -12 -17 3 -5 9 8 15 19
12 26 -3 7 16 31 42 55 36 33 52 41 70 37 18 -5 24 -2 25 11 1 40 10 54 70
117 40 42 68 65 77 61 24 -9 55 5 43 19 -8 9 -2 24 20 54 17 23 34 40 39 37 5
-3 16 -2 25 1 13 5 14 9 4 15 -10 6 -6 15 15 36 19 18 30 24 33 16 8 -22 18
-14 20 13 1 20 36 61 134 160 74 73 135 137 137 143 2 6 -23 36 -55 67 -35 34
-53 59 -45 61 6 3 12 11 12 20 0 8 7 13 18 11 12 -3 16 -12 15 -32z m-570 -32
c-3 -8 -8 -14 -12 -14 -12 0 -31 23 -31 37 0 10 5 10 24 2 14 -7 22 -17 19
-25z m68 -54 c6 -27 3 -38 -13 -52 -20 -17 -20 -18 -2 -19 10 -1 22 -1 27 0
12 2 8 -4 -21 -32 l-29 -27 2 37 c1 21 3 43 4 48 7 22 0 45 -13 45 -8 0 -18 5
-22 12 -4 6 -3 8 3 5 6 -4 16 0 23 8 19 23 34 13 41 -25z m-61 -146 c0 -18
-13 -24 -27 -13 -10 9 -13 7 -13 -10 0 -23 -7 -26 -28 -12 -23 14 5 48 39 47
16 -1 29 -6 29 -12z m-76 -71 c-9 -7 -20 -10 -24 -8 -5 3 -6 38 -1 52 1 2 10
-5 21 -15 19 -16 19 -18 4 -29z m-44 -12 c0 -12 -20 -25 -27 -18 -7 7 6 27 18
27 5 0 9 -4 9 -9z m-33 -78 c-44 -44 -67 -54 -67 -27 0 8 -5 12 -11 8 -8 -4
-8 -9 0 -17 16 -16 14 -44 -4 -50 -20 -8 -28 9 -16 31 6 11 8 21 6 24 -3 3 10
21 27 40 27 29 40 35 70 34 l37 -1 -42 -42z m-112 -80 c7 -31 54 18 -567 -601
-375 -374 -421 -417 -453 -420 -19 -2 -35 0 -35 5 0 13 334 343 347 343 7 0
13 6 13 13 0 12 669 687 681 687 4 0 10 -12 14 -27z m434 -142 c-15 -5 -22 6
-14 19 6 9 10 9 16 -1 5 -8 4 -15 -2 -18z m-3077 -608 c10 -9 18 -28 18 -42 0
-64 -125 -267 -267 -432 -49 -57 -97 -110 -106 -118 -37 -30 -11 -129 41 -154
40 -20 58 -11 83 41 20 42 21 52 10 102 -9 44 -8 57 3 68 12 12 21 12 61 -3
39 -15 56 -17 113 -8 69 11 102 4 102 -21 0 -8 -6 -18 -12 -23 -19 -15 -101
-33 -147 -33 -38 0 -41 -2 -41 -28 0 -43 -49 -131 -84 -153 -40 -24 -77 -24
-126 1 -83 42 -117 177 -76 300 28 84 113 249 159 309 85 111 194 206 241 210
5 1 18 -6 28 -16z m2666 -126 c2 -10 -13 -49 -32 -87 -20 -39 -33 -70 -29 -70
5 0 51 12 102 25 111 29 241 34 261 10 6 -8 10 -22 8 -32 -3 -15 -18 -19 -108
-24 -59 -4 -134 -16 -170 -27 -36 -11 -79 -23 -97 -27 -24 -5 -35 -14 -46 -43
-41 -105 -44 -179 -11 -262 12 -29 26 -44 58 -60 96 -46 210 -14 308 86 34 35
66 71 71 79 14 25 46 38 63 24 28 -23 13 -50 -73 -138 -105 -106 -163 -134
-279 -135 -196 -2 -288 151 -225 376 l18 67 -28 6 c-35 8 -79 48 -79 73 0 22
17 45 51 66 22 14 28 14 45 2 18 -14 18 -15 1 -33 -24 -27 -21 -42 8 -49 31
-8 25 -14 62 66 50 108 111 162 121 107z m-3841 -969 l963 -963 578 578 577
577 43 0 43 0 -593 -596 c-326 -327 -595 -598 -598 -600 -6 -6 233 -245 242
-242 4 2 332 325 728 718 667 662 724 715 760 721 22 3 40 1 40 -3 0 -5 -344
-352 -764 -772 l-764 -763 -146 146 -146 146 -147 -147 -148 -148 -959 960
c-934 933 -959 959 -948 984 6 14 15 26 19 26 5 0 429 -421 943 -935 514 -514
940 -935 945 -935 6 0 64 54 130 120 l120 120 -965 965 c-956 956 -964 964
-945 985 10 11 21 20 24 20 3 0 439 -433 968 -962z m3098 762 c27 -30 23 -75
-10 -110 -15 -16 -64 -48 -108 -71 -72 -38 -81 -45 -102 -93 -31 -68 -41 -122
-25 -141 36 -43 116 3 213 123 32 39 66 72 76 72 32 0 41 -20 34 -82 -6 -55
-5 -58 16 -58 33 0 72 24 156 94 41 36 85 68 96 71 22 7 49 -10 49 -31 0 -17
-165 -157 -219 -185 -62 -32 -118 -29 -151 8 l-27 30 -43 -44 c-53 -55 -107
-83 -160 -83 -106 0 -146 70 -110 191 11 35 20 65 20 65 0 1 -12 1 -27 1 -44
-1 -73 13 -73 33 0 24 29 40 72 40 59 0 76 11 125 77 77 105 154 141 198 93z
m-1416 -55 c69 -35 48 -110 -42 -154 -23 -11 -78 -26 -122 -34 -74 -12 -80
-15 -80 -37 0 -62 155 -84 278 -39 34 12 89 42 122 66 69 51 110 55 110 13 0
-20 -15 -35 -70 -72 -99 -66 -170 -90 -285 -95 -86 -4 -99 -3 -140 19 -92 50
-115 135 -53 200 51 54 203 147 241 148 7 0 26 -7 41 -15z m666 -97 c27 -32
27 -35 21 -117 l-6 -84 37 6 c20 4 61 23 90 44 160 115 153 112 177 88 23 -23
12 -39 -79 -105 -148 -107 -223 -126 -274 -71 l-28 29 -49 -50 c-78 -80 -144
-99 -189 -53 -89 89 79 345 226 345 41 0 51 -4 74 -32z m2094 -42 c10 -11 7
-28 -13 -78 -30 -77 -40 -128 -26 -148 14 -22 36 -5 103 84 45 58 64 76 83 76
26 0 50 -40 40 -67 -3 -7 -1 -25 4 -39 l10 -26 48 44 c94 87 205 151 255 146
26 -2 32 -7 32 -27 0 -20 -7 -27 -34 -34 -50 -13 -138 -71 -203 -135 -32 -31
-58 -60 -58 -64 0 -4 21 -40 47 -80 149 -233 178 -388 100 -519 -84 -139 -232
-156 -345 -39 -60 61 -76 111 -69 218 7 120 65 270 146 382 30 41 30 43 15 78
-8 20 -16 37 -18 39 -2 2 -16 -15 -31 -37 -31 -45 -81 -80 -114 -80 -85 0
-114 112 -61 236 34 78 63 101 89 70z"/>
<path d="M3288 6638 c9 -9 15 -9 24 0 9 9 7 12 -12 12 -19 0 -21 -3 -12 -12z"/>
<path d="M7410 5221 c0 -5 5 -13 10 -16 6 -3 10 -2 10 4 0 5 -4 13 -10 16 -5
3 -10 2 -10 -4z"/>
<path d="M8540 4340 c0 -5 5 -10 11 -10 5 0 7 5 4 10 -3 6 -8 10 -11 10 -2 0
-4 -4 -4 -10z"/>
<path d="M7958 3733 c7 -3 16 -2 19 1 4 3 -2 6 -13 5 -11 0 -14 -3 -6 -6z"/>
<path d="M7100 3469 c0 -5 5 -7 10 -4 6 3 10 8 10 11 0 2 -4 4 -10 4 -5 0 -10
-5 -10 -11z"/>
<path d="M5053 3305 c-60 -47 -156 -179 -205 -280 -26 -55 -48 -104 -48 -109
0 -11 105 116 165 199 39 54 132 215 123 215 -1 0 -17 -12 -35 -25z"/>
<path d="M5543 2919 c-29 -17 -53 -32 -53 -34 0 -6 74 17 103 31 28 15 37 34
15 34 -7 0 -37 -14 -65 -31z"/>
<path d="M6195 2861 c-29 -12 -104 -97 -121 -136 -18 -44 -18 -85 -1 -85 21 0
86 51 139 108 65 70 76 123 25 121 -12 0 -31 -4 -42 -8z"/>
<path d="M8560 2479 c-120 -195 -143 -387 -58 -476 86 -91 180 -77 234 34 37
75 37 171 1 260 -29 71 -124 233 -137 233 -4 0 -22 -23 -40 -51z"/>
</g>
</svg>
