<?xml version="1.0" standalone="no"?>
<!DOCTYPE svg PUBLIC "-//W3C//DTD SVG 20010904//EN"
 "http://www.w3.org/TR/2001/REC-SVG-20010904/DTD/svg10.dtd">
<svg version="1.0" xmlns="http://www.w3.org/2000/svg"
 width="986.000000pt" height="885.000000pt" viewBox="0 0 986.000000 885.000000"
 preserveAspectRatio="xMidYMid meet">

<g transform="translate(0.000000,885.000000) scale(0.100000,-0.100000)"
fill="#000000" stroke="none">
<path d="M0 4425 l0 -4425 4930 0 4930 0 0 4425 0 4425 -4930 0 -4930 0 0
-4425z m2624 461 c22 -7 54 -26 73 -40 30 -24 33 -32 33 -77 0 -49 -5 -66 -55
-174 -25 -56 -201 -420 -216 -447 -5 -10 -9 -24 -9 -32 0 -8 -6 -27 -14 -43
-31 -62 -60 -143 -53 -149 9 -9 31 7 99 71 93 89 132 117 248 175 114 58 121
61 194 84 68 22 278 22 349 0 133 -41 219 -104 290 -213 38 -58 50 -84 87
-176 5 -11 11 -32 14 -47 4 -18 13 -28 24 -28 16 0 34 23 128 172 29 46 75 88
144 134 30 21 67 45 82 55 15 11 31 19 37 19 5 0 31 11 58 23 88 43 117 49
245 54 130 5 200 -6 271 -44 15 -8 38 -20 50 -26 116 -62 218 -175 334 -371
29 -50 61 -100 71 -111 9 -11 24 -32 34 -46 33 -51 160 -178 211 -211 29 -18
54 -35 57 -38 24 -25 247 -150 325 -180 133 -53 315 -52 510 1 221 61 436 190
655 395 30 28 94 85 141 126 214 189 366 368 460 543 60 113 104 181 158 245
89 106 146 141 232 143 47 1 62 -3 92 -26 105 -80 107 -132 12 -312 -37 -71
-71 -132 -74 -135 -4 -3 -29 -39 -55 -80 -62 -98 -101 -150 -230 -310 -91
-113 -170 -204 -231 -265 -59 -60 -175 -162 -267 -237 -23 -18 -56 -45 -73
-59 -174 -146 -490 -325 -660 -373 -33 -10 -71 -21 -85 -26 -48 -16 -146 -24
-305 -24 -210 -1 -270 7 -435 61 -128 41 -377 188 -514 303 -164 137 -235 215
-339 372 -109 163 -212 289 -260 319 -94 57 -238 -15 -352 -176 -56 -79 -175
-316 -175 -349 0 -6 -4 -16 -8 -21 -5 -6 -17 -32 -27 -60 -29 -80 -132 -293
-176 -364 -54 -86 -87 -121 -115 -121 -13 0 -34 -5 -48 -11 -28 -13 -71 0
-116 34 -78 59 -138 257 -154 507 -6 98 -22 219 -36 280 -42 178 -75 247 -142
295 l-50 36 -49 -16 c-115 -39 -335 -229 -493 -426 -11 -13 -33 -40 -50 -59
-17 -20 -42 -51 -56 -69 -14 -19 -39 -50 -56 -70 -57 -66 -168 -217 -309 -418
-150 -214 -284 -333 -374 -333 -48 0 -108 24 -143 57 -31 30 -64 123 -53 150
8 19 67 183 105 293 12 36 26 69 31 74 5 6 9 19 9 31 0 12 4 25 8 31 5 5 21
43 37 84 15 41 34 91 42 110 16 37 21 50 48 120 9 25 21 52 25 61 5 9 30 68
56 130 25 63 62 147 80 187 19 41 34 76 34 78 0 3 15 37 34 77 18 40 43 95 56
122 12 28 42 93 67 145 219 460 267 535 372 587 53 26 81 28 135 9z m2410
-1872 c23 -9 20 -90 -4 -129 -10 -16 -33 -57 -51 -90 -71 -132 -252 -369 -375
-491 -52 -51 -57 -68 -43 -126 19 -72 75 -128 129 -128 35 0 43 5 69 40 34 48
45 111 33 188 -11 66 -1 73 65 42 36 -17 58 -21 93 -16 159 20 152 20 148 0
-4 -22 -46 -33 -163 -42 l-80 -7 -5 -55 c-7 -65 -37 -127 -80 -164 -44 -36
-110 -36 -167 1 -93 60 -119 205 -65 359 39 109 144 317 189 373 66 82 177
193 222 222 46 30 58 33 85 23z m3360 -162 c5 -9 0 -21 -52 -114 -48 -85 -42
-105 25 -89 21 5 72 18 113 29 82 21 244 36 284 26 17 -4 26 -13 26 -25 0 -17
-9 -19 -106 -19 -59 0 -125 -5 -148 -11 -49 -13 -141 -39 -176 -50 -14 -4 -38
-10 -53 -13 -30 -7 -35 -17 -81 -146 -29 -83 -12 -245 31 -288 7 -7 13 -17 13
-22 0 -16 85 -58 131 -65 57 -8 147 8 208 37 43 21 124 95 214 195 23 26 43
40 52 36 8 -3 15 -9 15 -14 0 -40 -173 -217 -241 -247 -100 -43 -115 -47 -204
-47 -78 1 -99 4 -147 28 -77 38 -111 89 -133 202 -14 76 -6 147 31 254 8 24
13 50 10 57 -3 7 -24 18 -47 24 -45 12 -89 49 -89 76 0 19 56 74 76 74 19 0
18 -24 -1 -40 -23 -19 -14 -53 18 -68 36 -18 75 -8 86 21 52 135 123 234 145
199z m-927 -270 c41 -54 -21 -129 -162 -197 -33 -16 -68 -36 -78 -44 -23 -19
-70 -120 -86 -184 -10 -43 -10 -53 6 -80 27 -45 63 -54 119 -27 51 25 149 118
208 198 28 40 44 52 60 50 20 -3 21 -8 18 -76 -4 -82 5 -102 48 -102 33 0 124
58 211 136 89 79 115 93 135 72 14 -13 10 -19 -38 -59 -29 -24 -55 -46 -58
-50 -3 -3 -32 -27 -65 -54 -76 -61 -128 -85 -189 -85 -43 0 -53 4 -82 35 -18
19 -36 35 -41 35 -4 0 -34 -27 -65 -59 -64 -65 -111 -92 -174 -99 -141 -16
-191 107 -112 275 19 39 3 56 -45 49 -29 -5 -48 -2 -61 7 -26 19 -12 37 30 37
19 0 56 5 81 11 38 10 52 21 91 73 63 83 135 153 164 159 34 7 70 -2 85 -21z
m-1788 -67 c30 -15 41 -33 41 -67 0 -25 -64 -88 -90 -88 -10 0 -21 -4 -24 -9
-7 -11 -136 -40 -191 -44 -84 -5 -78 -91 9 -135 39 -19 62 -23 135 -23 133 0
239 38 353 127 61 48 98 57 98 25 0 -41 -176 -144 -298 -175 -88 -22 -250 -23
-292 -1 -112 58 -139 150 -68 230 40 47 196 148 258 168 26 9 40 7 69 -8z
m830 -111 c29 -24 31 -29 30 -97 0 -40 -4 -81 -8 -92 -10 -23 10 -70 33 -78 9
-4 30 -1 48 5 32 11 138 74 148 87 3 4 30 26 61 49 93 70 140 47 52 -25 -120
-98 -197 -142 -267 -153 -62 -10 -97 2 -120 40 -9 17 -20 30 -24 30 -4 0 -34
-27 -67 -61 -116 -117 -207 -132 -254 -42 -26 50 41 195 129 282 85 84 179
106 239 55z m2654 -61 c4 -7 -27 -84 -54 -136 -5 -9 -12 -43 -15 -75 -7 -63 8
-92 45 -92 26 0 79 52 140 136 74 103 103 108 106 17 2 -57 19 -103 38 -103 8
0 44 28 79 63 106 101 274 192 323 173 21 -8 7 -36 -19 -36 -60 0 -274 -153
-337 -241 l-19 -27 40 -68 c22 -38 45 -76 51 -85 16 -23 75 -127 92 -164 49
-103 52 -118 52 -240 l0 -120 -37 -67 c-42 -73 -95 -116 -172 -138 -97 -27
-213 35 -286 153 -29 45 -30 52 -30 165 0 104 3 126 29 200 36 101 111 250
159 316 34 46 35 50 23 85 -31 92 -51 102 -90 46 -13 -19 -41 -51 -62 -70 -32
-29 -47 -35 -82 -35 -53 0 -71 17 -88 82 -10 36 -10 52 -1 73 7 14 12 34 12
44 0 9 9 36 20 59 11 23 25 53 30 67 9 24 43 35 53 18z"/>
<path d="M4874 2867 c-103 -108 -154 -171 -154 -193 0 -7 -3 -14 -7 -16 -14
-6 -116 -224 -128 -271 -14 -55 12 -35 117 93 136 165 205 265 274 398 67 129
29 125 -102 -11z"/>
<path d="M7360 2532 c-63 -69 -64 -71 -47 -78 9 -3 32 6 54 23 45 33 53 42 53
66 0 26 -31 20 -60 -11z"/>
<path d="M5595 2472 c-88 -51 -124 -74 -140 -92 -16 -18 -16 -20 -1 -26 38
-15 197 50 217 89 7 13 7 23 -2 33 -15 18 -37 17 -74 -4z"/>
<path d="M6375 2370 c-83 -39 -185 -178 -185 -253 0 -76 35 -87 109 -33 98 72
201 201 201 252 0 22 -38 54 -62 54 -13 -1 -41 -9 -63 -20z"/>
<path d="M9378 1928 c-66 -91 -158 -286 -158 -337 0 -13 -5 -41 -12 -62 -18
-63 7 -201 47 -253 96 -127 215 -140 309 -35 54 61 76 126 76 228 0 116 -40
222 -143 383 -20 31 -37 59 -37 62 0 11 -35 46 -46 46 -6 0 -22 -15 -36 -32z"/>
</g>
</svg>
