<?xml version="1.0" encoding="UTF-8"?>
<svg version="1.1" xmlns="http://www.w3.org/2000/svg" width="100" height="100">
<path d="M0 0 C33 0 66 0 100 0 C100 33 100 66 100 100 C67 100 34 100 0 100 C0 67 0 34 0 0 Z " fill="#FDFDFA" transform="translate(0,0)"/>
<path d="M0 0 C33 0 66 0 100 0 C100 17.49 100 34.98 100 53 C99.01 53.495 99.01 53.495 98 54 C97.773125 53.236875 97.54625 52.47375 97.3125 51.6875 C95.69525346 48.37599519 94.13334997 47.84229257 91 46 C89.65143805 44.80106295 88.34600568 43.55217912 87.08349609 42.26293945 C86.352789 41.52239822 85.62208191 40.78185699 84.86923218 40.01887512 C84.09511993 39.22502914 83.32100769 38.43118317 82.5234375 37.61328125 C80.86730078 35.93673705 79.21104731 34.26030817 77.5546875 32.58398438 C74.95387798 29.93953215 72.35557348 27.29267269 69.75976562 24.64331055 C67.2498249 22.08530209 64.73091831 19.53639353 62.2109375 16.98828125 C61.43277679 16.18836258 60.65461609 15.38844391 59.85287476 14.56428528 C58.7662706 13.46765816 58.7662706 13.46765816 57.65771484 12.34887695 C56.70437759 11.37649834 56.70437759 11.37649834 55.73178101 10.38447571 C53.97898938 8.687783 53.97898938 8.687783 51 9 C50.67 9.66 50.34 10.32 50 11 C48.02 10.34 46.04 9.68 44 9 C42.78763672 10.21236328 42.78763672 10.21236328 41.55078125 11.44921875 C35.11328125 17.88671875 35.11328125 17.88671875 33.52832031 19.46948242 C32.09830483 20.90155383 30.67581926 22.34113327 29.25390625 23.78125 C27 26 27 26 24.625 27.8125 C21.53277103 30.38935747 19.10336568 33.28903683 16.55078125 36.390625 C16.03902344 36.92171875 15.52726563 37.4528125 15 38 C14.34 38 13.68 38 13 38 C12.773125 38.5775 12.54625 39.155 12.3125 39.75 C10.6591307 42.58434736 8.57036056 43.96762189 6 46 C5.05995713 47.06311255 4.14312837 48.14718062 3.25 49.25 C2.13625 50.61125 2.13625 50.61125 1 52 C0.67 52 0.34 52 0 52 C0 34.84 0 17.68 0 0 Z " fill="#FEFEFC" transform="translate(0,0)"/>
<path d="M0 0 C2 1 4 2 6 3 C6.33 2.01 6.66 1.02 7 0 C10.83112568 0.56681936 12.60840897 2.21938869 15.32543945 4.90551758 C16.1692366 5.73340286 17.01303375 6.56128815 17.88240051 7.41426086 C18.78359116 8.31525009 19.6847818 9.21623932 20.61328125 10.14453125 C21.54222702 11.06586349 22.47117279 11.98719574 23.42826843 12.93644714 C25.39107685 14.88582002 27.34785716 16.84101917 29.30102539 18.80004883 C31.80740785 21.3123404 34.33159266 23.80586657 36.86102009 26.29492664 C39.26902206 28.67091208 41.65878617 31.06493191 44.05078125 33.45703125 C44.96209305 34.35194778 45.87340485 35.24686432 46.81233215 36.16889954 C47.6403685 37.0062413 48.46840485 37.84358307 49.3215332 38.70629883 C50.05781448 39.44052567 50.79409576 40.1747525 51.5526886 40.93122864 C53 43 53 43 52.81158447 45.16539001 C51.85468909 47.32847948 50.75446128 48.58790167 49.05859375 50.234375 C48.18364258 51.09482422 48.18364258 51.09482422 47.29101562 51.97265625 C46.67935547 52.55917969 46.06769531 53.14570312 45.4375 53.75 C44.51420898 54.65298828 44.51420898 54.65298828 43.57226562 55.57421875 C42.05485187 57.05634381 40.52829404 58.5290967 39 60 C40.98 60.33 42.96 60.66 45 61 C45 61.66 45 62.32 45 63 C43.35 63 41.7 63 40 63 C40 64.32 40 65.64 40 67 C43.465 66.01 43.465 66.01 47 65 C45.8125 67 45.8125 67 44 69 C41.3125 69.25 41.3125 69.25 39 69 C38.71125 68.05125 38.4225 67.1025 38.125 66.125 C37.23174891 62.94788422 37.23174891 62.94788422 35 61 C40.28 55.72 45.56 50.44 51 45 C47.28712752 40.35890939 43.94468407 36.29645605 39 33 C40.36144033 38.19822672 42.46730171 41.09543873 46 45 C44.97916667 46.16666667 43.95833333 47.33333333 42.9375 48.5 C42.30457031 49.22703125 41.67164062 49.9540625 41.01953125 50.703125 C39.69831691 52.2057827 38.36281203 53.69602458 37.01171875 55.171875 C36.07779297 56.20054688 36.07779297 56.20054688 35.125 57.25 C34.55007812 57.87390625 33.97515625 58.4978125 33.3828125 59.140625 C31.77590844 61.30132086 31 63.28258676 31 66 C32.98 65.67 34.96 65.34 37 65 C37 65.66 37 66.32 37 67 C35.56496445 67.36402369 34.12683494 67.71586591 32.6875 68.0625 C31.88699219 68.25972656 31.08648437 68.45695312 30.26171875 68.66015625 C28 69 28 69 25 68 C22.94285168 68.01382865 22.94285168 68.01382865 21 69 C19.96564444 70.64556566 18.97236487 72.3170608 18 74 C16.1071585 76.17345142 14.13574604 78.04601958 12 80 C11.34 80 10.68 80 10 80 C8.87483915 81.83284443 8.87483915 81.83284443 8 84 C8.33 84.99 8.66 85.98 9 87 C14.61 81.39 20.22 75.78 26 70 C26.66 70.33 27.32 70.66 28 71 C25.15385668 74.04918427 22.26890866 77.05866767 19.375 80.0625 C18.16263672 81.3628418 18.16263672 81.3628418 16.92578125 82.68945312 C16.13300781 83.50478516 15.34023438 84.32011719 14.5234375 85.16015625 C13.4394165 86.29916382 13.4394165 86.29916382 12.33349609 87.46118164 C10 89 10 89 6.85229492 88.70239258 C5.9110376 88.47060303 4.96978027 88.23881348 4 88 C2.93072266 88.29777344 2.93072266 88.29777344 1.83984375 88.6015625 C0 89 0 89 -1.74609375 87.9609375 C-2.30425781 87.43757813 -2.86242188 86.91421875 -3.4375 86.375 C-4.03691406 85.81941406 -4.63632812 85.26382813 -5.25390625 84.69140625 C-5.83011719 84.13324219 -6.40632813 83.57507813 -7 83 C-7.94875 82.113125 -8.8975 81.22625 -9.875 80.3125 C-12 78 -12 78 -13 75 C-13.66 75 -14.32 75 -15 75 C-15 74.34 -15 73.68 -15 73 C-15.66 73 -16.32 73 -17 73 C-18.35386936 71.34997172 -19.68678142 69.6825613 -21 68 C-21.66 67.67 -22.32 67.34 -23 67 C-23 66.34 -23 65.68 -23 65 C-19.43474072 66.50888492 -17.20707802 68.58623856 -14.5234375 71.3515625 C-13.688125 72.20234375 -12.8528125 73.053125 -11.9921875 73.9296875 C-10.69667969 75.26386719 -10.69667969 75.26386719 -9.375 76.625 C-7.65826847 78.39252241 -5.93714292 80.15579134 -4.2109375 81.9140625 C-3.07084229 83.0889624 -3.07084229 83.0889624 -1.90771484 84.28759766 C-0.17919728 86.22266183 -0.17919728 86.22266183 2 86 C-0.48729159 80.22314499 -5.30093741 76.12600487 -9.625 71.6875 C-10.50285156 70.74326172 -11.38070312 69.79902344 -12.28515625 68.82617188 C-16.64886359 64.00155876 -16.64886359 64.00155876 -22.43261719 61.61962891 C-24.87875034 61.85038294 -24.87875034 61.85038294 -28 63 C-27.88456926 57.22846303 -26.20080196 52.7205184 -23.6875 47.5625 C-23.39157959 46.93520996 -23.09565918 46.30791992 -22.79077148 45.66162109 C-20.53811905 41.21958273 -20.53811905 41.21958273 -17.76953125 40.08984375 C-16.89361328 40.04537109 -16.89361328 40.04537109 -16 40 C-16.2475 41.175625 -16.2475 41.175625 -16.5 42.375 C-17.0623707 44.88208039 -17.0623707 44.88208039 -17 47 C-16.67 46.67 -16.34 46.34 -16 46 C-13.32941149 45.85884839 -10.67567762 45.95752893 -8 46 C-7.505 47.98 -7.505 47.98 -7 50 C-6.34 50 -5.68 50 -5 50 C-4.67 49.01 -4.34 48.02 -4 47 C2.21306376 45.53810264 2.21306376 45.53810264 5.875 47.6875 C8 50 8 50 8.5 52.125 C8.7475 53.053125 8.7475 53.053125 9 54 C12.64883542 56.08504881 15.86654941 56.64838441 20 56 C26.09132996 52.47716121 30.13181538 47.80227693 34 42 C35.32 42 36.64 42 38 42 C37.1816152 47.31950123 33.65804222 51.28040536 30.25 55.25 C27.78892074 57.66579117 27.78892074 57.66579117 28 60 C28.66 60 29.32 60 30 60 C30.37125 59.13375 30.37125 59.13375 30.75 58.25 C32.18299988 55.67060021 33.78424676 53.93878408 36 52 C36.66 52 37.32 52 38 52 C38.268125 51.38125 38.53625 50.7625 38.8125 50.125 C40 48 40 48 43 46 C41.99554337 43.75928906 41.12245015 42.12245015 39.375 40.375 C38.92125 39.92125 38.4675 39.4675 38 39 C38 38.34 38 37.68 38 37 C37.401875 36.731875 36.80375 36.46375 36.1875 36.1875 C34.00152146 35.00082594 32.58667406 33.90400887 31 32 C31 31.34 31 30.68 31 30 C30.44280273 29.76732422 29.88560547 29.53464844 29.31152344 29.29492188 C26.40076355 27.66430607 24.37818867 25.63760806 22.015625 23.28125 C20.61376953 21.88326172 20.61376953 21.88326172 19.18359375 20.45703125 C18.7026123 19.97186035 18.22163086 19.48668945 17.72607422 18.98681641 C16.24795152 17.49793661 14.75940089 16.02008349 13.26953125 14.54296875 C11.87541016 13.14498047 11.87541016 13.14498047 10.453125 11.71875 C9.59879883 10.86216797 8.74447266 10.00558594 7.86425781 9.12304688 C6 7 6 7 6 5 C1.33102564 8.60178022 -2.71533417 12.41887282 -6.4375 17 C-9.06751232 20.07903881 -11.8625034 22.45078401 -15 25 C-17.64508971 27.51606095 -20.02346899 30.02917766 -22.3125 32.875 C-25.43782939 36.72155925 -29.21413997 39.82476255 -33 43 C-31.8141763 46.37503669 -30.72426311 48.64722731 -28 51 C-28.33 51.66 -28.66 52.32 -29 53 C-30.20205464 51.93283928 -31.38632333 50.84561663 -32.5625 49.75 C-33.22378906 49.14671875 -33.88507812 48.5434375 -34.56640625 47.921875 C-36 46 -36 46 -35.80897522 44.11856079 C-34.80554752 41.49076389 -33.49733077 40.14959434 -31.48999023 38.18115234 C-30.74929794 37.44714203 -30.00860565 36.71313171 -29.24546814 35.95687866 C-28.44129959 35.17446808 -27.63713104 34.3920575 -26.80859375 33.5859375 C-25.98875504 32.77508698 -25.16891632 31.96423645 -24.32423401 31.1288147 C-21.70233742 28.53698026 -19.07078988 25.95525451 -16.4375 23.375 C-13.80153382 20.78674253 -11.16781586 18.19634993 -8.54005432 15.59976196 C-6.90357807 13.9831599 -5.26218244 12.3715205 -3.61558533 10.76522827 C-2.8780452 10.03752228 -2.14050507 9.30981628 -1.38061523 8.56005859 C-0.72633041 7.91926361 -0.07204559 7.27846863 0.60206604 6.61825562 C2.2179045 5.10416104 2.2179045 5.10416104 2 3 C-1.31613882 4.44580966 -3.49185728 6.24829792 -6.03417969 8.80712891 C-6.81468689 9.58778717 -7.59519409 10.36844543 -8.39935303 11.17276001 C-9.23178528 12.01551483 -10.06421753 12.85826965 -10.921875 13.7265625 C-12.21185394 15.02078629 -12.21185394 15.02078629 -13.52789307 16.34115601 C-16.2733231 19.09778029 -19.0117169 21.86127799 -21.75 24.625 C-23.61021783 26.49524857 -25.47088946 28.36504589 -27.33203125 30.234375 C-31.89329945 34.8176936 -36.44881011 39.40667478 -41 44 C-40.06161708 45.10953095 -39.12109037 46.21724898 -38.1796875 47.32421875 C-37.39440674 48.24980591 -37.39440674 48.24980591 -36.59326172 49.1940918 C-35.16312904 50.81509876 -33.68535511 52.31852525 -32.125 53.8125 C-30 56 -30 56 -30 58 C-30.66 58 -31.32 58 -32 58 C-32 57.34 -32 56.68 -32 56 C-33.32 55.34 -34.64 54.68 -36 54 C-36 53.34 -36 52.68 -36 52 C-36.5775 51.7525 -37.155 51.505 -37.75 51.25 C-40.3002997 49.83316683 -42.01785701 48.12372463 -44 46 C-41.30329792 39.93242033 -37.07298544 36.1412126 -32 32 C-29.31279024 29.44387364 -26.90251536 26.8800189 -24.5625 24 C-21.93248768 20.92096119 -19.1374966 18.54921599 -16 16 C-14.32068099 14.34608246 -12.65575396 12.67750839 -11 11 C-10.03589613 10.03441694 -9.07103761 9.06958684 -8.10546875 8.10546875 C-7.62529297 7.62529297 -7.14511719 7.14511719 -6.65039062 6.65039062 C-4.43359375 4.43359375 -2.21679688 2.21679687 0 0 Z " fill="#D6D3C5" transform="translate(44,8)"/>
<path d="M0 0 C0.335939 1.4577353 0.66866624 2.91621106 1 4.375 C1.185625 5.18710937 1.37125 5.99921875 1.5625 6.8359375 C2 9 2 9 2 11 C2.99 11 3.98 11 5 11 C5.19335938 10.37351562 5.38671875 9.74703125 5.5859375 9.1015625 C5.84632812 8.28429687 6.10671875 7.46703125 6.375 6.625 C6.75785156 5.40683594 6.75785156 5.40683594 7.1484375 4.1640625 C8 2 8 2 10 0 C11.8125 0 11.8125 0 14 1 C15.71140469 2.96185416 17.37873325 4.96302383 19 7 C22.52155964 9.34770643 24.50771843 9.37669614 28.6875 9.625 C29.86699219 9.69976562 31.04648438 9.77453125 32.26171875 9.8515625 C33.61716797 9.92503906 33.61716797 9.92503906 35 10 C33.63016497 13.16115776 33.0109362 13.9927092 30 16 C29.26656572 19.06556598 29.26656572 19.06556598 29 22 C28.34 22 27.68 22 27 22 C27 22.66 27 23.32 27 24 C26.34 24 25.68 24 25 24 C25 24.66 25 25.32 25 26 C23.35546875 27.7265625 23.35546875 27.7265625 21.1875 29.625 C20.12595703 30.57246094 20.12595703 30.57246094 19.04296875 31.5390625 C17 33 17 33 14 33 C12.3515625 31.64453125 12.3515625 31.64453125 10.625 29.8125 C10.06039062 29.22082031 9.49578125 28.62914063 8.9140625 28.01953125 C8.28242187 27.35308594 7.65078125 26.68664062 7 26 C4.47434247 23.45377522 1.92933589 20.93121748 -0.640625 18.4296875 C-1.50171875 17.58664063 -2.3628125 16.74359375 -3.25 15.875 C-4.12140625 15.02679688 -4.9928125 14.17859375 -5.890625 13.3046875 C-8 11 -8 11 -9 8 C-7.63671875 5.95703125 -7.63671875 5.95703125 -5.6875 3.8125 C-5.05199219 3.09707031 -4.41648437 2.38164063 -3.76171875 1.64453125 C-2 0 -2 0 0 0 Z " fill="#F9F9F5" transform="translate(33,58)"/>
<path d="M0 0 C0.99 0 1.98 0 3 0 C2.835 0.78375 2.67 1.5675 2.5 2.375 C1.9376293 4.88208039 1.9376293 4.88208039 2 7 C2.33 6.67 2.66 6.34 3 6 C5.67058851 5.85884839 8.32432238 5.95752893 11 6 C11.33 7.32 11.66 8.64 12 10 C12.66 10 13.32 10 14 10 C14.33 9.01 14.66 8.02 15 7 C21.21306376 5.53810264 21.21306376 5.53810264 24.875 7.6875 C27 10 27 10 27.5 12.125 C27.7475 13.053125 27.7475 13.053125 28 14 C31.64883542 16.08504881 34.86654941 16.64838441 39 16 C45.09132996 12.47716121 49.13181538 7.80227693 53 2 C54.32 2 55.64 2 57 2 C56.00826013 8.44630917 51.53720938 12.68217752 46.78125 16.703125 C42.1811354 20.05233124 38.39855385 20.53986844 32.765625 20.45703125 C28.33881598 19.7254823 25.81221145 17.36973442 23 14 C22.34 13.01 21.68 12.02 21 11 C19.05600216 11.15103828 19.05600216 11.15103828 17 12 C15.64897007 14.0720554 15.64897007 14.0720554 14.75 16.5625 C14.41484375 17.38878906 14.0796875 18.21507813 13.734375 19.06640625 C13.49203125 19.70449219 13.2496875 20.34257813 13 21 C12.01 21 11.02 21 10 21 C9.664061 19.5422647 9.33133376 18.08378894 9 16.625 C8.814375 15.81289063 8.62875 15.00078125 8.4375 14.1640625 C8 12 8 12 8 10 C2.06868861 11.71234381 0.1852604 15.70270773 -3.03515625 20.6640625 C-3.68355469 21.43492188 -4.33195312 22.20578125 -5 23 C-6.32 23 -7.64 23 -9 23 C-8.85312929 15.6564644 -5.38028571 5.38028571 0 0 Z " fill="#535455" transform="translate(25,48)"/>
<path d="M0 0 C3.16115776 1.36983503 3.9927092 1.9890638 6 5 C6.43331885 8.67338837 6.32423396 12.36630323 6.3125 16.0625 C6.32861328 17.08150391 6.34472656 18.10050781 6.36132812 19.15039062 C6.36197266 20.12298828 6.36261719 21.09558594 6.36328125 22.09765625 C6.36626221 22.98976807 6.36924316 23.88187988 6.37231445 24.80102539 C6.24945068 25.52668701 6.12658691 26.25234863 6 27 C5.01 27.66 4.02 28.32 3 29 C3.66 29.99 4.32 30.98 5 32 C4.625 34.6875 4.625 34.6875 4 37 C2.125 37.625 2.125 37.625 0 38 C-0.66 37.34 -1.32 36.68 -2 36 C-1.6730244 33.38419521 -1.17960932 31.35921863 0 29 C-0.99 28.67 -1.98 28.34 -3 28 C-3 27.01 -3 26.02 -3 25 C-3.99 25.66 -4.98 26.32 -6 27 C-7.32 27 -8.64 27 -10 27 C-10 25.68 -10 24.36 -10 23 C-8.35 23 -6.7 23 -5 23 C-5 22.34 -5 21.68 -5 21 C-5.598125 21.20625 -6.19625 21.4125 -6.8125 21.625 C-9 22 -9 22 -12 20 C-11.57066162 19.5968457 -11.14132324 19.19369141 -10.69897461 18.77832031 C-8.76554861 16.94867245 -6.85158944 15.09985825 -4.9375 13.25 C-4.26138672 12.61578125 -3.58527344 11.9815625 -2.88867188 11.328125 C-2.25380859 10.709375 -1.61894531 10.090625 -0.96484375 9.453125 C-0.3730835 8.88754883 0.21867676 8.32197266 0.82836914 7.73925781 C2.2379556 6.05589163 2.2379556 6.05589163 1.74780273 3.90917969 C1.01690939 1.95864839 1.01690939 1.95864839 0 0 Z " fill="#FCFBF8" transform="translate(94,48)"/>
<path d="M0 0 C2 1 4 2 6 3 C6 3.66 6 4.32 6 5 C4.35648543 6.36176922 2.68477344 7.68962066 1 9 C-1.68627207 11.55195846 -4.0996537 14.1226507 -6.4375 17 C-9.06751232 20.07903881 -11.8625034 22.45078401 -15 25 C-17.64508971 27.51606095 -20.02346899 30.02917766 -22.3125 32.875 C-25.43782939 36.72155925 -29.21413997 39.82476255 -33 43 C-31.8141763 46.37503669 -30.72426311 48.64722731 -28 51 C-28.33 51.66 -28.66 52.32 -29 53 C-30.20205464 51.93283928 -31.38632333 50.84561663 -32.5625 49.75 C-33.22378906 49.14671875 -33.88507812 48.5434375 -34.56640625 47.921875 C-36 46 -36 46 -35.80897522 44.11856079 C-34.80554752 41.49076389 -33.49733077 40.14959434 -31.48999023 38.18115234 C-30.74929794 37.44714203 -30.00860565 36.71313171 -29.24546814 35.95687866 C-28.44129959 35.17446808 -27.63713104 34.3920575 -26.80859375 33.5859375 C-25.98875504 32.77508698 -25.16891632 31.96423645 -24.32423401 31.1288147 C-21.70233742 28.53698026 -19.07078988 25.95525451 -16.4375 23.375 C-13.80153382 20.78674253 -11.16781586 18.19634993 -8.54005432 15.59976196 C-6.90357807 13.9831599 -5.26218244 12.3715205 -3.61558533 10.76522827 C-2.8780452 10.03752228 -2.14050507 9.30981628 -1.38061523 8.56005859 C-0.72633041 7.91926361 -0.07204559 7.27846863 0.60206604 6.61825562 C2.2179045 5.10416104 2.2179045 5.10416104 2 3 C-1.31613882 4.44580966 -3.49185728 6.24829792 -6.03417969 8.80712891 C-6.81468689 9.58778717 -7.59519409 10.36844543 -8.39935303 11.17276001 C-9.23178528 12.01551483 -10.06421753 12.85826965 -10.921875 13.7265625 C-12.21185394 15.02078629 -12.21185394 15.02078629 -13.52789307 16.34115601 C-16.2733231 19.09778029 -19.0117169 21.86127799 -21.75 24.625 C-23.61021783 26.49524857 -25.47088946 28.36504589 -27.33203125 30.234375 C-31.89329945 34.8176936 -36.44881011 39.40667478 -41 44 C-40.06161708 45.10953095 -39.12109037 46.21724898 -38.1796875 47.32421875 C-37.39440674 48.24980591 -37.39440674 48.24980591 -36.59326172 49.1940918 C-35.16312904 50.81509876 -33.68535511 52.31852525 -32.125 53.8125 C-30 56 -30 56 -30 58 C-30.66 58 -31.32 58 -32 58 C-32 57.34 -32 56.68 -32 56 C-33.32 55.34 -34.64 54.68 -36 54 C-36 53.34 -36 52.68 -36 52 C-36.5775 51.7525 -37.155 51.505 -37.75 51.25 C-40.3002997 49.83316683 -42.01785701 48.12372463 -44 46 C-41.30329792 39.93242033 -37.07298544 36.1412126 -32 32 C-29.31279024 29.44387364 -26.90251536 26.8800189 -24.5625 24 C-21.93248768 20.92096119 -19.1374966 18.54921599 -16 16 C-14.32068099 14.34608246 -12.65575396 12.67750839 -11 11 C-10.03589613 10.03441694 -9.07103761 9.06958684 -8.10546875 8.10546875 C-7.62529297 7.62529297 -7.14511719 7.14511719 -6.65039062 6.65039062 C-4.43359375 4.43359375 -2.21679688 2.21679687 0 0 Z " fill="#D5CDB3" transform="translate(44,8)"/>
<path d="M0 0 C0.66 0.33 1.32 0.66 2 1 C0.55746343 4.36591866 -1.33264727 6.51047079 -4 9 C-0.56508905 13.13262723 2.89035377 17.02445934 7 20.5 C17.91336873 29.79657336 17.91336873 29.79657336 19 36 C19.66 36 20.32 36 21 36 C21.33 35.34 21.66 34.68 22 34 C22.66 34.99 23.32 35.98 24 37 C29.61 31.39 35.22 25.78 41 20 C41.66 20.33 42.32 20.66 43 21 C40.15385668 24.04918427 37.26890866 27.05866767 34.375 30.0625 C33.56675781 30.92939453 32.75851563 31.79628906 31.92578125 32.68945312 C31.13300781 33.50478516 30.34023438 34.32011719 29.5234375 35.16015625 C28.4394165 36.29916382 28.4394165 36.29916382 27.33349609 37.46118164 C25 39 25 39 21.85229492 38.70239258 C20.44040894 38.35470825 20.44040894 38.35470825 19 38 C17.93072266 38.29777344 17.93072266 38.29777344 16.83984375 38.6015625 C15 39 15 39 13.25390625 37.9609375 C12.69574219 37.43757813 12.13757813 36.91421875 11.5625 36.375 C10.96308594 35.81941406 10.36367188 35.26382813 9.74609375 34.69140625 C9.16988281 34.13324219 8.59367187 33.57507813 8 33 C7.05125 32.113125 6.1025 31.22625 5.125 30.3125 C3 28 3 28 2 25 C1.34 25 0.68 25 0 25 C0 24.34 0 23.68 0 23 C-0.66 23 -1.32 23 -2 23 C-3.35386936 21.34997172 -4.68678142 19.6825613 -6 18 C-6.66 17.67 -7.32 17.34 -8 17 C-8 16.34 -8 15.68 -8 15 C-4.43474072 16.50888492 -2.20707802 18.58623856 0.4765625 21.3515625 C1.311875 22.20234375 2.1471875 23.053125 3.0078125 23.9296875 C3.87148438 24.81914063 4.73515625 25.70859375 5.625 26.625 C7.34173153 28.39252241 9.06285708 30.15579134 10.7890625 31.9140625 C11.54912598 32.6973291 12.30918945 33.4805957 13.09228516 34.28759766 C14.82080272 36.22266183 14.82080272 36.22266183 17 36 C14.53644964 30.19377278 9.51792895 26.19002597 5.125 21.8125 C4.21363281 20.88501953 3.30226563 19.95753906 2.36328125 19.00195312 C1.48285156 18.12087891 0.60242187 17.23980469 -0.3046875 16.33203125 C-1.10890137 15.52483643 -1.91311523 14.7176416 -2.74169922 13.88598633 C-5.0517074 11.67844836 -5.0517074 11.67844836 -9 11 C-6.03 7.37 -3.06 3.74 0 0 Z " fill="#E8DDBE" transform="translate(29,58)"/>
<path d="M0 0 C3.54433654 1.41773462 4.33806119 2.67612238 6 6 C7.32467746 6.6837045 8.65863633 7.34964186 10 8 C10.99 9.32 11.98 10.64 13 12 C7.72 17.28 2.44 22.56 -3 28 C-2.34 28.66 -1.68 29.32 -1 30 C-1.33 30.99 -1.66 31.98 -2 33 C-3.84765625 33.73046875 -3.84765625 33.73046875 -6.0625 34.1875 C-6.79597656 34.34605469 -7.52945313 34.50460938 -8.28515625 34.66796875 C-8.85105469 34.77753906 -9.41695313 34.88710937 -10 35 C-7.91868318 28.11564438 -5.07650016 23.83386458 0.125 18.875 C3.85700356 15.44932618 3.85700356 15.44932618 6 11 C5.566875 10.62488281 5.13375 10.24976563 4.6875 9.86328125 C0.08233276 5.63121784 0.08233276 5.63121784 -0.375 2.125 C-0.25125 1.42375 -0.1275 0.7225 0 0 Z " fill="#FCF8EB" transform="translate(83,41)"/>
<path d="M0 0 C3.83112568 0.56681936 5.60840897 2.21938869 8.32543945 4.90551758 C9.59113518 6.1473455 9.59113518 6.1473455 10.88240051 7.41426086 C11.78359116 8.31525009 12.6847818 9.21623932 13.61328125 10.14453125 C14.54222702 11.06586349 15.47117279 11.98719574 16.42826843 12.93644714 C18.39107685 14.88582002 20.34785716 16.84101917 22.30102539 18.80004883 C24.80740785 21.3123404 27.33159266 23.80586657 29.86102009 26.29492664 C32.26902206 28.67091208 34.65878617 31.06493191 37.05078125 33.45703125 C37.96209305 34.35194778 38.87340485 35.24686432 39.81233215 36.16889954 C40.6403685 37.0062413 41.46840485 37.84358307 42.3215332 38.70629883 C43.05781448 39.44052567 43.79409576 40.1747525 44.5526886 40.93122864 C46 43 46 43 45.81158447 45.16539001 C44.85468909 47.32847948 43.75446128 48.58790167 42.05859375 50.234375 C41.47529297 50.80800781 40.89199219 51.38164063 40.29101562 51.97265625 C39.67935547 52.55917969 39.06769531 53.14570312 38.4375 53.75 C37.51420898 54.65298828 37.51420898 54.65298828 36.57226562 55.57421875 C35.05485187 57.05634381 33.52829404 58.5290967 32 60 C34.97 60.495 34.97 60.495 38 61 C38 61.66 38 62.32 38 63 C36.35 63 34.7 63 33 63 C33 64.32 33 65.64 33 67 C36.465 66.01 36.465 66.01 40 65 C38.8125 67 38.8125 67 37 69 C34.3125 69.25 34.3125 69.25 32 69 C31.71125 68.05125 31.4225 67.1025 31.125 66.125 C30.23174891 62.94788422 30.23174891 62.94788422 28 61 C33.28 55.72 38.56 50.44 44 45 C40.46516339 40.58145424 37.12161806 36.61912957 32.625 33.1875 C30.43517979 31.36264982 28.79888593 29.67501242 26.97265625 27.51953125 C22.45678083 22.31022227 17.65929141 17.40020939 12.8125 12.5 C11.92369141 11.5821875 11.03488281 10.664375 10.11914062 9.71875 C9.26126953 8.8525 8.40339844 7.98625 7.51953125 7.09375 C6.74714111 6.30677734 5.97475098 5.51980469 5.17895508 4.70898438 C2.93696451 2.58857338 2.93696451 2.58857338 -1 3 C-0.67 2.01 -0.34 1.02 0 0 Z " fill="#BBB5A2" transform="translate(51,8)"/>
<path d="M0 0 C4.17917653 0.51182223 6.10710028 2.76149845 8.984375 5.69140625 C9.67506073 6.38845924 9.67506073 6.38845924 10.37969971 7.09959412 C11.84367811 8.58031819 13.29686041 10.07114519 14.75 11.5625 C15.74279449 12.57034664 16.7362767 13.57751633 17.73046875 14.58398438 C20.16166473 17.04819461 22.58328868 19.52157329 25 22 C23.68 22.99 22.36 23.98 21 25 C18.50235903 22.57173794 16.14528335 20.18614429 14 17.4375 C12.03976682 14.87438268 12.03976682 14.87438268 9.25 12.8125 C8.5075 12.214375 7.765 11.61625 7 11 C7 10.34 7 9.68 7 9 C6.34 9 5.68 9 5 9 C2.375 6.75 2.375 6.75 0 4 C0 2.68 0 1.36 0 0 Z " fill="#FAF5E9" transform="translate(51,10)"/>
<path d="M0 0 C2.03833424 1.2739589 4.03852126 2.61061923 6 4 C6 4.66 6 5.32 6 6 C6.66 6 7.32 6 8 6 C10.93788913 8.69306503 13.5035253 11.57366561 16.0625 14.625 C19.13104216 18.27567492 19.13104216 18.27567492 23 21 C23.66 20.814375 24.32 20.62875 25 20.4375 C25.66 20.293125 26.32 20.14875 27 20 C29.25 21.8125 29.25 21.8125 31 24 C31 24.66 31 25.32 31 26 C31.99 26.33 32.98 26.66 34 27 C33.505 29.475 33.505 29.475 33 32 C29.21388773 31.45912682 27.44599233 29.88277668 25 27 C25 26.34 25 25.68 25 25 C24.44280273 24.76732422 23.88560547 24.53464844 23.31152344 24.29492188 C20.40076355 22.66430607 18.37818867 20.63760806 16.015625 18.28125 C14.61376953 16.88326172 14.61376953 16.88326172 13.18359375 15.45703125 C12.7026123 14.97186035 12.22163086 14.48668945 11.72607422 13.98681641 C10.24795152 12.49793661 8.75940089 11.02008349 7.26953125 9.54296875 C6.34011719 8.61097656 5.41070312 7.67898437 4.453125 6.71875 C3.59879883 5.86216797 2.74447266 5.00558594 1.86425781 4.12304688 C0 2 0 2 0 0 Z " fill="#F0EADB" transform="translate(50,13)"/>
<path d="M0 0 C-1.13304992 3.39914975 -2.12518475 4.05254451 -5 6 C-5.66 5.67 -6.32 5.34 -7 5 C-6.34 4.01 -5.68 3.02 -5 2 C-10.61 7.61 -16.22 13.22 -22 19 C-22.66 18.67 -23.32 18.34 -24 18 C-23.52315361 13.70838247 -21.05862681 11.85471836 -18 9 C-13.89826502 5.25773216 -13.89826502 5.25773216 -10.875 0.6875 C-10 -1 -10 -1 -8.25 -1.875 C-5.17969854 -2.0455723 -2.84159626 -1.09788947 0 0 Z " fill="#FCF9ED" transform="translate(75,77)"/>
<path d="M0 0 C0.9590625 0.2165625 0.9590625 0.2165625 1.9375 0.4375 C5.93844788 1.17236798 9.95504896 1.58581111 14 2 C14 2.33 14 2.66 14 3 C12.02 3 10.04 3 8 3 C8 4.32 8 5.64 8 7 C7.34 7 6.68 7 6 7 C6 7.66 6 8.32 6 9 C7.65 8.34 9.3 7.68 11 7 C10.67 7.99 10.34 8.98 10 10 C6.66666667 10 3.33333333 10 0 10 C-1.33981486 10.3062434 -2.67511887 10.63451555 -4 11 C-3.56179109 6.44262737 -3.14958831 3.42346555 0 0 Z " fill="#D4D4D5" transform="translate(50,66)"/>
<path d="M0 0 C0.33 0.99 0.66 1.98 1 3 C-8.24 12.24 -17.48 21.48 -27 31 C-22.70372126 36.03847395 -22.70372126 36.03847395 -18.125 40.8125 C-16 43 -16 43 -16 45 C-16.66 45 -17.32 45 -18 45 C-18 44.34 -18 43.68 -18 43 C-19.32 42.34 -20.64 41.68 -22 41 C-22 40.34 -22 39.68 -22 39 C-22.5775 38.7525 -23.155 38.505 -23.75 38.25 C-26.3002997 36.83316683 -28.01785701 35.12372463 -30 33 C-27.30329792 26.93242033 -23.07298544 23.1412126 -18 19 C-15.31279024 16.44387364 -12.90251536 13.8800189 -10.5625 11 C-8.65763554 8.76991478 -7.04816228 7.11947946 -4.8125 5.3125 C-1.87245245 3.12328275 -1.87245245 3.12328275 0 0 Z " fill="#CFC6AD" transform="translate(30,21)"/>
<path d="M0 0 C0.66 0.33 1.32 0.66 2 1 C0.55746343 4.36591866 -1.33264727 6.51047079 -4 9 C-0.56508905 13.13262723 2.89035377 17.02445934 7 20.5 C11.49088463 24.30806006 16.33643314 28.67286629 19 34 C15.35215762 32.47225779 13.1049595 30.29678769 10.375 27.46484375 C9.50359375 26.57345703 8.6321875 25.68207031 7.734375 24.76367188 C5.9095053 22.87753869 4.08659086 20.9895118 2.265625 19.09960938 C1.39421875 18.20951172 0.5228125 17.31941406 -0.375 16.40234375 C-1.16648437 15.58241943 -1.95796875 14.76249512 -2.7734375 13.91772461 C-5.04553964 11.67032676 -5.04553964 11.67032676 -9 11 C-6.03 7.37 -3.06 3.74 0 0 Z " fill="#E0D7B7" transform="translate(29,58)"/>
<path d="M0 0 C1.1446875 0.2784375 1.1446875 0.2784375 2.3125 0.5625 C5.08967375 1.22819173 5.08967375 1.22819173 8 0 C8 0.66 8 1.32 8 2 C7.01 2.66 6.02 3.32 5 4 C5.99 5.485 5.99 5.485 7 7 C6.625 9.6875 6.625 9.6875 6 12 C4.125 12.625 4.125 12.625 2 13 C1.34 12.34 0.68 11.68 0 11 C0.3269756 8.38419521 0.82039068 6.35921863 2 4 C1.01 3.67 0.02 3.34 -1 3 C-0.67 2.01 -0.34 1.02 0 0 Z " fill="#CACACA" transform="translate(92,73)"/>
<path d="M0 0 C2 1 4 2 6 3 C6 3.66 6 4.32 6 5 C4.35648543 6.36176922 2.68477344 7.68962066 1 9 C0.175 9.825 -0.65 10.65 -1.5 11.5 C-3.87675345 13.87675345 -6.34119332 15.94892056 -9 18 C-7.4721586 14.32310696 -5.24372494 12.09801192 -2.375 9.375 C-0.87941162 7.95489873 0.58886398 6.50405032 2 5 C2 4.34 2 3.68 2 3 C-1.90285767 4.58667578 -4.33520982 7.13350481 -7.25 10.125 C-8.58804688 11.49011719 -8.58804688 11.49011719 -9.953125 12.8828125 C-10.96632813 13.93082031 -10.96632813 13.93082031 -12 15 C-12 12 -12 12 -9.375 9.08203125 C-8.25750594 7.98449244 -7.13214357 6.89492105 -6 5.8125 C-5.42765625 5.25369141 -4.8553125 4.69488281 -4.265625 4.11914062 C-2.85037212 2.73926907 -1.42602845 1.36873266 0 0 Z " fill="#B8B298" transform="translate(44,8)"/>
<path d="M0 0 C2.03833424 1.2739589 4.03852126 2.61061923 6 4 C6 4.66 6 5.32 6 6 C6.66 6 7.32 6 8 6 C11.47400318 9.18450292 14.47734645 12.69406207 17.51171875 16.29296875 C18.87835387 17.86047413 20.34199589 19.34199589 21.8125 20.8125 C24 23 24 23 25 25 C21.26193389 23.43904931 18.86757459 21.12570854 16.015625 18.28125 C14.61376953 16.88326172 14.61376953 16.88326172 13.18359375 15.45703125 C12.7026123 14.97186035 12.22163086 14.48668945 11.72607422 13.98681641 C10.24795152 12.49793661 8.75940089 11.02008349 7.26953125 9.54296875 C6.34011719 8.61097656 5.41070312 7.67898437 4.453125 6.71875 C3.59879883 5.86216797 2.74447266 5.00558594 1.86425781 4.12304688 C0 2 0 2 0 0 Z " fill="#C4BCA6" transform="translate(50,13)"/>
<path d="M0 0 C1.14926266 0.95421808 2.29430541 1.91352045 3.4375 2.875 C4.39462891 3.67550781 4.39462891 3.67550781 5.37109375 4.4921875 C7 6 7 6 8 8 C-5.06930693 23.35643564 -5.06930693 23.35643564 -10 25 C-10 24.34 -10 23.68 -10 23 C-9.34 23 -8.68 23 -8 23 C-7.7525 22.4225 -7.505 21.845 -7.25 21.25 C-5.81700012 18.67060021 -4.21575324 16.93878408 -2 15 C-1.34 15 -0.68 15 0 15 C0.268125 14.38125 0.53625 13.7625 0.8125 13.125 C2 11 2 11 5 9 C3.99554337 6.75928906 3.12245015 5.12245015 1.375 3.375 C0.92125 2.92125 0.4675 2.4675 0 2 C0 1.34 0 0.68 0 0 Z " fill="#CFC6AA" transform="translate(82,45)"/>
<path d="M0 0 C2 2 2 2 2 6 C1.34 6 0.68 6 0 6 C-0.2475 6.5775 -0.495 7.155 -0.75 7.75 C-2.18299988 10.32939979 -3.78424676 12.06121592 -6 14 C-6.66 14 -7.32 14 -8 14 C-8.33 14.66 -8.66 15.32 -9 16 C-9.33 15.34 -9.66 14.68 -10 14 C-7.91573247 10.75780607 -5.8052173 7.69198611 -3.3125 4.75 C-1.02795613 2.25038973 -1.02795613 2.25038973 0 0 Z " fill="#F4F2E9" transform="translate(80,54)"/>
<path d="M0 0 C2 0 2 0 3.54296875 1.42578125 C4.08566406 2.04839844 4.62835938 2.67101563 5.1875 3.3125 C5.73792969 3.92738281 6.28835937 4.54226562 6.85546875 5.17578125 C7.42201172 6.07876953 7.42201172 6.07876953 8 7 C6.66667905 10.99996286 4.5042173 11.83782337 1 14 C1.33 10.7 1.66 7.4 2 4 C1.34 3.67 0.68 3.34 0 3 C0 2.01 0 1.02 0 0 Z " fill="#FAF9EE" transform="translate(80,45)"/>
<path d="M0 0 C0.99 0 1.98 0 3 0 C2.835 0.763125 2.67 1.52625 2.5 2.3125 C1.90854604 5.03596236 1.90854604 5.03596236 2 8 C2 8.66 2 9.32 2 10 C1.401875 9.79375 0.80375 9.5875 0.1875 9.375 C-2.28450846 8.69328085 -2.28450846 8.69328085 -5 11 C-4.46972205 6.4926374 -2.80388725 3.5460927 0 0 Z " fill="#575958" transform="translate(25,48)"/>
<path d="M0 0 C4.27461239 0.48938319 6.32551066 2.95742826 9.25 5.9375 C10.14203125 6.83339844 11.0340625 7.72929688 11.953125 8.65234375 C14 11 14 11 14 13 C13.34 13 12.68 13 12 13 C12 12.34 12 11.68 12 11 C10.68 10.34 9.36 9.68 8 9 C8 8.34 8 7.68 8 7 C7.4225 6.773125 6.845 6.54625 6.25 6.3125 C3.4336339 4.66961977 1.91922886 2.60466773 0 0 Z " fill="#E4DEBC" transform="translate(0,53)"/>
<path d="M0 0 C0.66 1.32 1.32 2.64 2 4 C2.66 4 3.32 4 4 4 C3.67 5.98 3.34 7.96 3 10 C2.01 10 1.02 10 0 10 C-1.49106457 7.01787087 -1.11941467 4.28390342 -1 1 C-0.67 0.67 -0.34 0.34 0 0 Z " fill="#4B4C50" transform="translate(35,59)"/>
<path d="M0 0 C0 0.99 0 1.98 0 3 C-2.40545638 4.20272819 -3.94996953 4.10071472 -6.625 4.0625 C-7.85089844 4.04896484 -7.85089844 4.04896484 -9.1015625 4.03515625 C-10.04128906 4.01775391 -10.04128906 4.01775391 -11 4 C-10.67 3.01 -10.34 2.02 -10 1 C-6.56484998 0.37542727 -3.50935186 0 0 0 Z " fill="#474A4E" transform="translate(68,64)"/>
<path d="M0 0 C0.99 0.33 1.98 0.66 3 1 C0.75 3.5625 0.75 3.5625 -2 6 C-4.125 5.625 -4.125 5.625 -6 5 C-7.77190909 6.35444301 -7.77190909 6.35444301 -9 8 C-8.6875 5.625 -8.6875 5.625 -8 3 C-7.01 2.34 -6.02 1.68 -5 1 C-5 1.66 -5 2.32 -5 3 C-4.01 3 -3.02 3 -2 3 C-2 2.34 -2 1.68 -2 1 C-1.34 0.67 -0.68 0.34 0 0 Z " fill="#434544" transform="translate(29,55)"/>
<path d="M0 0 C0.66 0 1.32 0 2 0 C0.38989473 4.07376031 -2.53822271 6.76507069 -5.625 9.75 C-6.140625 10.25660156 -6.65625 10.76320313 -7.1875 11.28515625 C-8.45383339 12.52803902 -9.7263144 13.76465276 -11 15 C-11.66 14.67 -12.32 14.34 -13 14 C-10.11093566 10.44501658 -7.25953148 7.07626154 -3.6875 4.1875 C-0.96924803 2.28130489 -0.96924803 2.28130489 0 0 Z " fill="#D9D0B1" transform="translate(13,38)"/>
<path d="M0 0 C1.32 0.66 2.64 1.32 4 2 C3.67 2.99 3.34 3.98 3 5 C1.15234375 5.73046875 1.15234375 5.73046875 -1.0625 6.1875 C-1.79597656 6.34605469 -2.52945313 6.50460938 -3.28515625 6.66796875 C-4.13400391 6.83232422 -4.13400391 6.83232422 -5 7 C-3.70700306 4.11562221 -2.34058637 2.12780579 0 0 Z " fill="#F5F5F4" transform="translate(78,69)"/>
<path d="M0 0 C0 3.10551666 -0.5393715 4.35261084 -2 7 C-0.35 8.98 1.3 10.96 3 13 C2.67 13.66 2.34 14.32 2 15 C0.79794536 13.93283928 -0.38632333 12.84561663 -1.5625 11.75 C-2.22378906 11.14671875 -2.88507812 10.5434375 -3.56640625 9.921875 C-5 8 -5 8 -4.84375 5.90625 C-3.71875025 3.3645839 -2.0450461 1.84713841 0 0 Z " fill="#E2D8BA" transform="translate(13,46)"/>
<path d="M0 0 C0.99 0.33 1.98 0.66 3 1 C1.625 3.5 1.625 3.5 0 6 C-0.66 6 -1.32 6 -2 6 C-2 6.66 -2 7.32 -2 8 C-0.68 7.67 0.64 7.34 2 7 C1.01 8.485 1.01 8.485 0 10 C-0.99 10 -1.98 10 -3 10 C-2.25 3.375 -2.25 3.375 0 0 Z " fill="#A1A1A3" transform="translate(49,67)"/>
<path d="M0 0 C0.66 0.33 1.32 0.66 2 1 C-2.79216354 8.43611584 -2.79216354 8.43611584 -5 10 C-7.1875 9.6875 -7.1875 9.6875 -9 9 C-6 6 -3 3 0 0 Z " fill="#F7F4E6" transform="translate(48,13)"/>
<path d="M0 0 C0.66 0.99 1.32 1.98 2 3 C2.99 3 3.98 3 5 3 C4.34 4.65 3.68 6.3 3 8 C1.68 8 0.36 8 -1 8 C-0.67 5.36 -0.34 2.72 0 0 Z " fill="#55595C" transform="translate(17,63)"/>
<path d="M0 0 C0.66 0.33 1.32 0.66 2 1 C0.54872961 4.38629758 -1.32650937 6.48853911 -4 9 C-4.5775 9.5775 -5.155 10.155 -5.75 10.75 C-6.36875 11.36875 -6.36875 11.36875 -7 12 C-7.66 11.67 -8.32 11.34 -9 11 C-6.03 7.37 -3.06 3.74 0 0 Z " fill="#E2E3E3" transform="translate(29,58)"/>
<path d="M0 0 C1.1446875 0.2784375 1.1446875 0.2784375 2.3125 0.5625 C5.08967375 1.22819173 5.08967375 1.22819173 8 0 C8 0.66 8 1.32 8 2 C7.01 2.66 6.02 3.32 5 4 C4.67 4.66 4.34 5.32 4 6 C3.34 6 2.68 6 2 6 C2 5.34 2 4.68 2 4 C1.01 3.67 0.02 3.34 -1 3 C-0.67 2.01 -0.34 1.02 0 0 Z " fill="#A3A2A3" transform="translate(92,73)"/>
<path d="M0 0 C2 3 2 3 1.7578125 5.04296875 C1.171875 7.02864583 0.5859375 9.01432292 0 11 C-0.12375 10.360625 -0.2475 9.72125 -0.375 9.0625 C-0.58125 8.381875 -0.7875 7.70125 -1 7 C-1.66 6.67 -2.32 6.34 -3 6 C-3 4.68 -3 3.36 -3 2 C-2.01 2 -1.02 2 0 2 C0 1.34 0 0.68 0 0 Z " fill="#EFF1EA" transform="translate(16,60)"/>
<path d="M0 0 C1.98 0.66 3.96 1.32 6 2 C5.67 2.66 5.34 3.32 5 4 C2.67843403 4.40729228 0.3431213 4.74438677 -2 5 C-1.125 1.125 -1.125 1.125 0 0 Z " fill="#A6A8A5" transform="translate(64,72)"/>
<path d="M0 0 C1.32 0 2.64 0 4 0 C3.40072174 3.35595828 2.15377564 5.37801226 0 8 C-0.38063221 5.6739143 -0.71269945 3.33944736 -1 1 C-0.67 0.67 -0.34 0.34 0 0 Z " fill="#5D5F60" transform="translate(78,50)"/>
<path d="M0 0 C0.33 0.66 0.66 1.32 1 2 C-4 8.57142857 -4 8.57142857 -9 10 C-7.38405168 7.95880212 -5.7143618 5.95927063 -4 4 C-3.34 4 -2.68 4 -2 4 C-1.34 2.68 -0.68 1.36 0 0 Z " fill="#F9F7E4" transform="translate(21,40)"/>
<path d="M0 0 C0.66 0.33 1.32 0.66 2 1 C0.02 2.98 -1.96 4.96 -4 7 C-3.67 7.66 -3.34 8.32 -3 9 C-3.99 9.33 -4.98 9.66 -6 10 C-6.66 9.34 -7.32 8.68 -8 8 C-5.36 5.36 -2.72 2.72 0 0 Z " fill="#CEC9B1" transform="translate(87,61)"/>
<path d="M0 0 C0.33 0.99 0.66 1.98 1 3 C-0.78346291 6.03188696 -1.59575156 6.86525052 -5 8 C-5.66 8.66 -6.32 9.32 -7 10 C-7 7 -7 7 -4.625 4.4375 C-3.75875 3.633125 -2.8925 2.82875 -2 2 C-1.34 1.34 -0.68 0.68 0 0 Z " fill="#F8F5E7" transform="translate(38,23)"/>
<path d="M0 0 C2.3431213 0.25561323 4.67843403 0.59270772 7 1 C7.33 1.66 7.66 2.32 8 3 C7.01 3.99 6.02 4.98 5 6 C4.01 5.01 3.02 4.02 2 3 C2.66 3 3.32 3 4 3 C4 2.34 4 1.68 4 1 C2.68 0.67 1.36 0.34 0 0 Z " fill="#5C5D5D" transform="translate(42,54)"/>
<path d="M0 0 C-3 2 -3 2 -7 2 C-7.99 2.33 -8.98 2.66 -10 3 C-10 2.01 -10 1.02 -10 0 C-6.22996568 -2.61002376 -4.07631429 -1.66758312 0 0 Z " fill="#FEFCED" transform="translate(54,97)"/>
<path d="M0 0 C0.33 0.99 0.66 1.98 1 3 C-1.64 5.31 -4.28 7.62 -7 10 C-7 7 -7 7 -5.46875 5.17578125 C-4.8190625 4.56089844 -4.169375 3.94601563 -3.5 3.3125 C-2.8503125 2.68988281 -2.200625 2.06726563 -1.53125 1.42578125 C-0.77328125 0.72001953 -0.77328125 0.72001953 0 0 Z " fill="#C3BDA4" transform="translate(43,16)"/>
<path d="M0 0 C0.33 0.66 0.66 1.32 1 2 C1.639375 2.309375 2.27875 2.61875 2.9375 2.9375 C5 4 5 4 7 7 C4.625 6.6875 4.625 6.6875 2 6 C0 3 0 3 0 0 Z " fill="#FCF9E5" transform="translate(20,73)"/>
<path d="M0 0 C0.66 0.33 1.32 0.66 2 1 C-1.96 4.465 -1.96 4.465 -6 8 C-6.33 7.34 -6.66 6.68 -7 6 C-6.34 6 -5.68 6 -5 6 C-4.731875 5.38125 -4.46375 4.7625 -4.1875 4.125 C-3 2 -3 2 0 0 Z " fill="#D5D0B6" transform="translate(79,62)"/>
<path d="M0 0 C3.57104439 1.87949705 5.54744301 3.17053157 7 7 C3.76509224 6.44225728 2.02144994 5.62788492 0 3 C0 2.01 0 1.02 0 0 Z " fill="#FCF9ED" transform="translate(70,35)"/>
<path d="M0 0 C0.99 0.33 1.98 0.66 3 1 C-0.465 3.97 -0.465 3.97 -4 7 C-3.04065919 3.16263678 -2.76390737 2.40339772 0 0 Z " fill="#FBF8E4" transform="translate(18,31)"/>
<path d="M0 0 C0.66 0.66 1.32 1.32 2 2 C-0.64 4.31 -3.28 6.62 -6 9 C-6 6 -6 6 -4.6875 4.39453125 C-4.130625 3.87246094 -3.57375 3.35039062 -3 2.8125 C-2.443125 2.28269531 -1.88625 1.75289062 -1.3125 1.20703125 C-0.6628125 0.60955078 -0.6628125 0.60955078 0 0 Z " fill="#CEC5AF" transform="translate(34,25)"/>
<path d="M0 0 C1.32 0 2.64 0 4 0 C4 0.66 4 1.32 4 2 C3.01 2.33 2.02 2.66 1 3 C0.67 3.66 0.34 4.32 0 5 C-1.32 4.34 -2.64 3.68 -4 3 C-2.68 2.67 -1.36 2.34 0 2 C0 1.34 0 0.68 0 0 Z " fill="#F9F7E5" transform="translate(50,6)"/>
<path d="M0 0 C1.65 0 3.3 0 5 0 C5 0.99 5 1.98 5 3 C3.02 3 1.04 3 -1 3 C-0.67 2.01 -0.34 1.02 0 0 Z " fill="#414644" transform="translate(58,65)"/>
<path d="M0 0 C3.875 1.75 3.875 1.75 5 4 C3.35 4.33 1.7 4.66 0 5 C0 3.35 0 1.7 0 0 Z " fill="#FDF8EF" transform="translate(83,41)"/>
</svg>
